<svg xmlns="http://www.w3.org/2000/svg" width="160" height="70" viewBox="20.5 70.5 160 70">
    <g fill="#BEBDBF">
        <path d="M41.14,99.75c0.312,0,0.581,0.109,0.804,0.333s0.333,0.491,0.333,0.803v10.556 c0,2.158-0.535,3.74-1.605,4.746c-0.856,0.791-2.02,1.188-3.484,1.188c-1.203,0-2.299-0.276-3.288-0.84 c-0.361-0.198-0.544-0.468-0.544-0.806s0.086-0.607,0.259-0.814c0.174-0.205,0.371-0.311,0.595-0.311s0.447,0.06,0.681,0.172 c0.626,0.314,1.231,0.473,1.815,0.473c0.585,0,1.06-0.046,1.422-0.139c0.361-0.09,0.685-0.268,0.964-0.527 c0.626-0.598,0.938-1.591,0.938-2.992v-10.705c0-0.312,0.106-0.58,0.321-0.803C40.562,99.861,40.826,99.75,41.14,99.75z"/>
        <path d="M62.544,115.645c0.083,0.197,0.124,0.407,0.124,0.631c0,0.225-0.1,0.439-0.297,0.654 c-0.198,0.215-0.512,0.32-0.938,0.32c-0.428,0-0.742-0.23-0.938-0.691l-1.606-3.854h-8.404l-1.606,3.854 c-0.196,0.461-0.511,0.691-0.938,0.691c-0.43,0-0.742-0.105-0.938-0.32c-0.197-0.215-0.297-0.433-0.297-0.654 c0-0.223,0.042-0.434,0.124-0.631l6.303-14.879c0.297-0.675,0.773-1.013,1.435-1.013h0.248c0.659,0,1.138,0.338,1.435,1.013 L62.544,115.645z M58.021,110.65l-3.336-8.033l-3.337,8.033H58.021z"/>
        <path d="M79.119,115.335c0.205,0.205,0.31,0.458,0.31,0.754c0,0.297-0.104,0.543-0.31,0.742 c-0.207,0.196-0.458,0.296-0.754,0.296h-11c-0.396,0-0.733-0.141-1.015-0.42c-0.281-0.28-0.42-0.609-0.42-0.989 c0-0.378,0.1-0.692,0.296-0.938l10.333-12.754h-9.518c-0.296,0-0.548-0.103-0.753-0.309c-0.206-0.206-0.31-0.457-0.31-0.753 s0.104-0.552,0.31-0.767s0.457-0.321,0.753-0.321h10.729c0.478,0,0.85,0.151,1.112,0.458c0.264,0.305,0.396,0.65,0.396,1.038 c0,0.387-0.134,0.729-0.396,1.026l-10.208,12.629h9.689C78.661,115.025,78.912,115.129,79.119,115.335z"/>
        <path d="M103.032,100.232c0.312,0.322,0.47,0.705,0.47,1.149v14.757c0,0.312-0.106,0.576-0.321,0.791 c-0.214,0.215-0.479,0.32-0.791,0.32c-0.312,0-0.58-0.105-0.803-0.32s-0.334-0.479-0.334-0.791V102.1l-5.71,14.112 c-0.132,0.313-0.339,0.565-0.617,0.754c-0.281,0.188-0.603,0.284-0.965,0.284s-0.685-0.096-0.964-0.284 c-0.28-0.188-0.485-0.438-0.618-0.754l-5.71-14.112v14.039c0,0.312-0.11,0.576-0.334,0.791s-0.488,0.32-0.804,0.32 c-0.312,0-0.576-0.105-0.79-0.32c-0.215-0.215-0.321-0.479-0.321-0.791v-14.757c0-0.444,0.157-0.827,0.471-1.149 c0.312-0.321,0.69-0.481,1.137-0.481h0.814c0.33,0,0.631,0.099,0.902,0.296c0.271,0.198,0.475,0.445,0.605,0.741l5.609,13.989 l5.611-13.989c0.132-0.296,0.334-0.543,0.604-0.741c0.272-0.197,0.573-0.296,0.903-0.296h0.814 C102.34,99.75,102.72,99.911,103.032,100.232z"/>
        <path d="M117.418,99.626c2.604,0,4.696,0.833,6.278,2.497c1.533,1.631,2.332,3.757,2.398,6.376 c-0.066,2.62-0.865,4.746-2.398,6.378c-1.582,1.664-3.674,2.496-6.278,2.496c-2.619,0-4.713-0.832-6.276-2.496 c-1.564-1.648-2.367-3.773-2.396-6.378c0.029-2.603,0.832-4.729,2.396-6.376C112.705,100.459,114.799,99.626,117.418,99.626z M117.418,115.273c2.011,0,3.593-0.651,4.746-1.953c1.121-1.252,1.683-2.859,1.683-4.82c0-1.96-0.562-3.566-1.683-4.82 c-1.153-1.301-2.735-1.953-4.746-1.953s-3.593,0.651-4.746,1.953c-1.12,1.252-1.681,2.859-1.681,4.82s0.561,3.568,1.681,4.82 C113.825,114.622,115.407,115.273,117.418,115.273z"/>
        <path d="M137.39,99.874c2.752,0,4.945,0.923,6.575,2.769c0.726,0.809,1.265,1.727,1.619,2.756 c0.354,1.031,0.532,2.064,0.532,3.103c0,1.039-0.18,2.073-0.532,3.104c-0.354,1.026-0.894,1.945-1.619,2.756 c-1.63,1.845-3.823,2.768-6.575,2.768h-4.968c-0.312,0-0.577-0.107-0.79-0.322c-0.215-0.213-0.322-0.477-0.322-0.789v-15.007 c0-0.312,0.107-0.581,0.322-0.803c0.213-0.224,0.479-0.334,0.79-0.334H137.39z M137.118,115.025c2.043,0,3.691-0.604,4.943-1.805 c1.22-1.203,1.83-2.777,1.83-4.724c0-1.942-0.61-3.519-1.83-4.722c-1.252-1.201-2.9-1.803-4.943-1.803h-3.561v13.049h3.561V115.025 z"/>
        <path d="M158.97,99.626c2.604,0,4.695,0.833,6.278,2.497c1.532,1.631,2.332,3.757,2.397,6.376 c-0.065,2.62-0.865,4.746-2.397,6.378c-1.583,1.664-3.675,2.496-6.278,2.496c-2.619,0-4.713-0.832-6.277-2.496 c-1.564-1.648-2.363-3.773-2.396-6.378c0.032-2.603,0.831-4.729,2.396-6.376C154.257,100.459,156.351,99.626,158.97,99.626z M158.97,115.273c2.01,0,3.592-0.651,4.745-1.953c1.121-1.252,1.683-2.859,1.683-4.82c0-1.96-0.562-3.566-1.683-4.82 c-1.153-1.301-2.735-1.953-4.745-1.953c-2.011,0-3.594,0.651-4.746,1.953c-1.119,1.252-1.681,2.859-1.681,4.82 s0.562,3.568,1.681,4.82C155.376,114.622,156.959,115.273,158.97,115.273z"/>
    </g>
</svg>
