<svg xmlns="http://www.w3.org/2000/svg" width="220" height="70" viewBox="0 0 220 70">
    <g fill="#BEBDBF">
        <path d="M133.059,28c0.146,0,0.221,0.087,0.221,0.261v14.39c0,0.082-0.025,0.146-0.079,0.191 c-0.056,0.049-0.13,0.07-0.222,0.07h-1.308c-0.106,0-0.19-0.012-0.252-0.03c-0.06-0.021-0.124-0.077-0.188-0.171l-7.338-10.532 c-0.054-0.093-0.104-0.133-0.148-0.12c-0.049,0.014-0.07,0.06-0.07,0.141v10.431c0,0.188-0.105,0.281-0.32,0.281h-1.43 c-0.213,0-0.318-0.094-0.318-0.281v-14.33c0-0.107,0.021-0.184,0.068-0.231c0.049-0.046,0.124-0.07,0.23-0.07h1.568 c0.118,0,0.209,0.017,0.271,0.05c0.061,0.034,0.115,0.097,0.171,0.191l7.033,10.188c0.079,0.094,0.141,0.143,0.182,0.143 c0.081,0,0.12-0.062,0.12-0.182V28.281c0-0.188,0.096-0.281,0.279-0.281H133.059z"/>
        <path d="M137.275,28.07c0.041-0.046,0.117-0.07,0.225-0.07h9.365c0.16,0,0.238,0.087,0.238,0.261l-0.02,1.267 c0,0.201-0.104,0.301-0.302,0.301h-6.834c-0.2,0-0.304,0.087-0.304,0.262v4.14c0,0.174,0.09,0.261,0.265,0.261h4.901 c0.176,0,0.264,0.081,0.264,0.241v1.346c0,0.147-0.088,0.222-0.264,0.222h-4.924c-0.162,0-0.242,0.073-0.242,0.221v4.343 c0,0.079,0.019,0.139,0.054,0.172c0.032,0.032,0.081,0.05,0.149,0.05h7.215c0.106,0,0.183,0.018,0.222,0.05 c0.039,0.034,0.062,0.099,0.062,0.191v1.325c0,0.176-0.095,0.263-0.281,0.263h-9.506c-0.136,0-0.227-0.021-0.271-0.069 c-0.046-0.048-0.07-0.132-0.07-0.252V28.301C137.217,28.194,137.236,28.118,137.275,28.07z"/>
        <path d="M168.98,28.121c0.062,0.08,0.069,0.188,0.031,0.321l-4.119,14.128c-0.041,0.121-0.099,0.207-0.172,0.262 c-0.074,0.054-0.179,0.081-0.312,0.081h-1.526c-0.28,0-0.446-0.106-0.502-0.321l-3.015-10.572c-0.016-0.094-0.041-0.141-0.08-0.141 c-0.016,0-0.042,0.054-0.081,0.161l-3.058,10.53c-0.024,0.121-0.074,0.207-0.148,0.262s-0.186,0.081-0.331,0.081h-1.565 c-0.259,0-0.424-0.106-0.504-0.321l-4.08-14.15c-0.016-0.04-0.021-0.087-0.021-0.141c0-0.201,0.12-0.301,0.359-0.301h1.67 c0.119,0,0.211,0.02,0.271,0.06c0.061,0.041,0.104,0.107,0.131,0.201l3.075,10.914c0.039,0.147,0.079,0.222,0.12,0.222 c0.039,0,0.08-0.066,0.12-0.201l3.095-10.932c0.055-0.174,0.194-0.261,0.424-0.261h1.445c0.135,0,0.229,0.02,0.281,0.06 c0.054,0.041,0.095,0.107,0.121,0.201l3.096,10.994c0.039,0.107,0.081,0.161,0.12,0.161c0.054,0,0.093-0.054,0.12-0.161 l3.076-10.994c0.039-0.174,0.172-0.261,0.398-0.261h1.268C168.824,28,168.922,28.04,168.98,28.121z"/>
        <path d="M178.921,29.97c-0.522-0.254-1.157-0.382-1.907-0.382c-0.953,0-1.693,0.198-2.223,0.593 c-0.529,0.396-0.795,0.941-0.795,1.638c0,0.924,0.656,1.608,1.971,2.05l3.016,0.944c2.275,0.71,3.416,2.05,3.416,4.019 c0,1.328-0.494,2.372-1.478,3.137c-0.985,0.764-2.334,1.146-4.049,1.146c-1.274,0-2.397-0.221-3.378-0.663 c-0.979-0.443-1.735-1.072-2.271-1.89c-0.054-0.107-0.08-0.177-0.08-0.201c0-0.107,0.065-0.209,0.199-0.303l0.986-0.684 c0.119-0.081,0.227-0.121,0.322-0.121c0.093,0,0.173,0.048,0.238,0.143c0.551,0.711,1.098,1.213,1.639,1.506 c0.543,0.297,1.277,0.443,2.201,0.443c1.045,0,1.861-0.183,2.451-0.544c0.592-0.36,0.885-0.925,0.885-1.688 c0-0.482-0.15-0.888-0.453-1.218c-0.301-0.328-0.846-0.633-1.635-0.914L174.941,36c-1.088-0.361-1.901-0.891-2.442-1.588 c-0.543-0.696-0.813-1.474-0.813-2.332c0-0.844,0.223-1.591,0.664-2.241c0.44-0.649,1.062-1.152,1.858-1.507 c0.795-0.355,1.717-0.533,2.763-0.533c1.03,0,1.967,0.181,2.803,0.543c0.838,0.361,1.524,0.857,2.062,1.487 c0.067,0.067,0.103,0.141,0.103,0.221c0,0.081-0.033,0.148-0.103,0.201l-1.146,0.885c-0.055,0.04-0.106,0.06-0.162,0.06 c-0.039,0-0.117-0.06-0.239-0.181C179.898,30.573,179.443,30.225,178.921,29.97z"/>
    </g>
    <path fill="#BEBDBF" d="M90,24v22h23V24H90z M105.751,40.386c-0.438,0.552-1.017,1.013-1.735,1.386	c-0.718,0.371-1.548,0.559-2.481,0.559c-1.2,0-2.237-0.281-3.111-0.846c-0.876-0.563-1.548-1.363-2.015-2.4	c-0.467-1.037-0.7-2.252-0.7-3.642c0-1.403,0.229-2.617,0.692-3.642c0.461-1.025,1.126-1.81,1.996-2.356	c0.867-0.545,1.896-0.818,3.084-0.818c0.826,0,1.605,0.171,2.337,0.513c0.731,0.341,1.337,0.8,1.816,1.375	c0.479,0.575,0.772,1.205,0.882,1.888c0.01,0.048,0.017,0.108,0.017,0.18c0,0.06-0.011,0.099-0.035,0.117	c-0.025,0.018-0.072,0.033-0.145,0.045l-1.672,0.108h-0.054c-0.072,0-0.126-0.065-0.163-0.198c-0.167-0.743-0.506-1.336-1.015-1.78	c-0.51-0.443-1.143-0.665-1.898-0.665c-1.163,0-2.048,0.435-2.65,1.304c-0.607,0.869-0.909,2.185-0.909,3.947	c0,1.751,0.302,3.06,0.909,3.92c0.603,0.863,1.512,1.295,2.723,1.295c0.816,0,1.496-0.196,2.041-0.593	c0.546-0.396,0.985-1.03,1.322-1.906c0.013-0.083,0.102-0.113,0.269-0.089l1.277,0.308c0.109,0.021,0.15,0.125,0.126,0.306	C106.49,39.271,106.189,39.835,105.751,40.386z"/>
    <g fill="#BEBDBF">
        <path d="M76.899,36.573c-0.54-0.372-1.253-0.558-2.14-0.558h-2.446c-0.108,0-0.184,0.017-0.225,0.053 c-0.042,0.035-0.062,0.096-0.062,0.181v3.919c0,0.18,0.065,0.271,0.198,0.271h2.355c2.086,0,3.129-0.727,3.129-2.176 C77.708,37.507,77.438,36.943,76.899,36.573z"/>
        <path d="M72.224,34.433h2.536c0.755,0,1.396-0.168,1.924-0.504c0.527-0.335,0.792-0.863,0.792-1.583 c0-0.719-0.261-1.264-0.783-1.636c-0.521-0.372-1.238-0.557-2.148-0.557h-2.248c-0.18,0-0.27,0.078-0.27,0.233v3.794 C72.026,34.349,72.091,34.433,72.224,34.433z"/>
        <path d="M63,24v22h23V24H63z M78.625,41.077c-0.899,0.593-2.218,0.891-3.956,0.891h-4.55 c-0.084,0-0.149-0.024-0.198-0.071c-0.048-0.049-0.072-0.106-0.072-0.181V28.93c0-0.204,0.096-0.305,0.288-0.305h4.37 c1.655,0,2.925,0.296,3.812,0.89c0.887,0.594,1.331,1.454,1.331,2.581c0,0.708-0.187,1.304-0.558,1.789 c-0.372,0.485-0.971,0.878-1.798,1.178c-0.048,0.012-0.072,0.039-0.072,0.081s0.024,0.069,0.072,0.081 c0.887,0.24,1.555,0.618,2.005,1.132c0.449,0.518,0.674,1.193,0.674,2.033C79.974,39.588,79.524,40.484,78.625,41.077z"/>
    </g>
    <g fill="#BEBDBF">
        <path d="M47.458,31.08c-0.036-0.083-0.077-0.126-0.126-0.126c-0.047,0-0.09,0.048-0.126,0.144l-1.996,5.394 l-0.018,0.109c0,0.082,0.054,0.125,0.161,0.125h3.903c0.083,0,0.135-0.021,0.153-0.062c0.018-0.041,0.014-0.105-0.009-0.188 L47.458,31.08z"/>
        <path d="M36,24v22h23V24H36z M53.194,41.995h-1.708c-0.156,0-0.258-0.072-0.306-0.218l-1.151-3.199 c-0.025-0.061-0.048-0.102-0.072-0.126c-0.024-0.022-0.072-0.035-0.144-0.035h-4.981c-0.109,0-0.18,0.048-0.216,0.144l-1.169,3.256 c-0.037,0.119-0.138,0.181-0.306,0.181h-1.384c-0.144,0-0.216-0.072-0.216-0.217l0.036-0.161l4.585-12.677 c0.037-0.108,0.084-0.183,0.144-0.225s0.144-0.062,0.252-0.062h1.816c0.227,0,0.378,0.102,0.449,0.305l4.549,12.679 c0.013,0.022,0.019,0.065,0.019,0.127C53.393,41.917,53.327,41.995,53.194,41.995z"/>
    </g>
</svg>
