<svg xmlns="http://www.w3.org/2000/svg" width="160" height="70" viewBox="0 0 160 70">
    <g fill="#BEBDBF">
        <path d="M56.681,39.54h3.16v-9.16h-3.16v-1.96h8.64v1.96h-3.16v9.16h3.16v1.96h-8.64V39.54z"/>
        <path d="M70,25v20h20V25H70z M82.76,41.5l-2.8-5.12H78v5.12h-2.32V28.42h4.36c0.681,0,1.313,0.066,1.899,0.2 c0.586,0.133,1.098,0.351,1.531,0.649c0.432,0.301,0.771,0.696,1.02,1.189c0.246,0.494,0.369,1.105,0.369,1.84 c0,1-0.236,1.809-0.709,2.422c-0.476,0.611-1.104,1.053-1.893,1.318l3.12,5.46L82.76,41.5L82.76,41.5z"/>
        <path d="M81.87,30.721c-0.474-0.294-1.163-0.441-2.07-0.441H78v4.262h1.8c0.907,0,1.597-0.188,2.07-0.561 c0.473-0.373,0.71-0.934,0.71-1.681C82.58,31.54,82.344,31.014,81.87,30.721z"/>
        <path d="M118.359,30.08h-1.791v9.342h1.791c0.972,0,1.73-0.328,2.283-0.982c0.551-0.654,0.823-1.514,0.823-2.568 v-2.255c0-1.046-0.272-1.896-0.823-2.552S119.331,30.08,118.359,30.08z"/>
        <path d="M109,25v20h20V25H109z M124.188,35.869c0,1.656-0.535,3.01-1.604,4.059 c-1.067,1.049-2.431,1.572-4.082,1.572h-4.5V27.992h4.499c1.65,0,3.014,0.527,4.082,1.582c1.068,1.054,1.604,2.406,1.604,4.059 v2.236H124.188L124.188,35.869z"/>
        <path d="M102.359,35.562h-4.574v3.857h4.361l0.119-1.613h2.061V41.5H93.639v-1.623l1.438-0.279v-9.693l-1.438-0.277 v-1.633h1.438h9.229v3.699h-2.078l-0.119-1.611h-4.323v3.396h4.573V35.562L102.359,35.562z"/>
        <path d="M31,25v20h20V25H31z M45.741,30.38h-6v3.7h5.1v1.96h-5.1v5.46h-2.32V28.42h8.32V30.38z"/>
    </g>
</svg>
