<svg xmlns="http://www.w3.org/2000/svg" width="160" height="70" viewBox="0 0 160 70">
    <g fill="#BEBDBF">
        <path d="M20.641,26.249c0.312,0,0.58,0.109,0.803,0.333c0.224,0.224,0.334,0.491,0.334,0.804V37.94 c0,2.158-0.535,3.74-1.605,4.746c-0.855,0.791-2.02,1.188-3.484,1.188c-1.203,0-2.299-0.276-3.287-0.84 c-0.361-0.198-0.545-0.468-0.545-0.806s0.086-0.607,0.26-0.814c0.174-0.205,0.371-0.311,0.595-0.311s0.447,0.06,0.681,0.172 c0.627,0.313,1.231,0.473,1.815,0.473c0.585,0,1.06-0.046,1.422-0.139c0.36-0.09,0.685-0.269,0.964-0.527 c0.626-0.598,0.938-1.591,0.938-2.992V27.386c0-0.312,0.107-0.58,0.322-0.803C20.062,26.36,20.326,26.249,20.641,26.249z"/>
        <path d="M42.044,42.144c0.083,0.197,0.124,0.407,0.124,0.631c0,0.226-0.1,0.439-0.297,0.654 c-0.198,0.215-0.512,0.32-0.938,0.32c-0.429,0-0.742-0.23-0.938-0.691l-1.606-3.854h-8.404l-1.605,3.854 c-0.195,0.461-0.511,0.691-0.938,0.691c-0.43,0-0.742-0.105-0.938-0.32s-0.297-0.433-0.297-0.654c0-0.223,0.042-0.434,0.124-0.631 l6.303-14.879c0.297-0.675,0.773-1.013,1.436-1.013h0.248c0.658,0,1.138,0.338,1.435,1.013L42.044,42.144z M37.521,37.149 l-3.336-8.033l-3.338,8.033H37.521z"/>
        <path d="M58.619,41.834c0.205,0.205,0.311,0.458,0.311,0.754c0,0.297-0.104,0.543-0.311,0.742 c-0.207,0.196-0.458,0.296-0.754,0.296h-11c-0.396,0-0.733-0.141-1.016-0.42c-0.281-0.28-0.42-0.609-0.42-0.989 c0-0.378,0.1-0.692,0.297-0.938l10.332-12.754h-9.518c-0.296,0-0.548-0.103-0.753-0.309c-0.206-0.206-0.31-0.457-0.31-0.753 s0.104-0.552,0.31-0.767s0.457-0.321,0.753-0.321H57.27c0.479,0,0.851,0.151,1.112,0.458c0.265,0.305,0.396,0.65,0.396,1.038 c0,0.387-0.133,0.729-0.396,1.026L48.174,41.526h9.689C58.161,41.524,58.412,41.628,58.619,41.834z"/>
        <path d="M82.532,26.731c0.312,0.322,0.47,0.705,0.47,1.148v14.758c0,0.312-0.105,0.575-0.32,0.791 c-0.215,0.215-0.479,0.319-0.791,0.319c-0.312,0-0.58-0.104-0.804-0.319c-0.224-0.216-0.334-0.479-0.334-0.791V28.599l-5.71,14.112 c-0.132,0.313-0.339,0.565-0.617,0.754c-0.281,0.188-0.603,0.284-0.965,0.284c-0.361,0-0.686-0.096-0.964-0.284 c-0.28-0.188-0.485-0.438-0.618-0.754l-5.71-14.112v14.039c0,0.312-0.11,0.576-0.334,0.791s-0.487,0.32-0.804,0.32 c-0.312,0-0.576-0.105-0.79-0.32c-0.216-0.215-0.321-0.479-0.321-0.791V27.881c0-0.444,0.157-0.827,0.471-1.149 c0.312-0.32,0.69-0.48,1.137-0.48h0.814c0.33,0,0.631,0.1,0.902,0.296c0.271,0.198,0.475,0.445,0.605,0.741l5.608,13.988 l5.61-13.988c0.133-0.296,0.334-0.543,0.604-0.741c0.272-0.196,0.573-0.296,0.903-0.296h0.814 C81.84,26.249,82.221,26.41,82.532,26.731z"/>
        <path d="M96.918,26.125c2.604,0,4.695,0.833,6.277,2.497c1.533,1.631,2.332,3.757,2.398,6.376 c-0.066,2.62-0.865,4.746-2.398,6.378c-1.582,1.664-3.674,2.496-6.277,2.496c-2.619,0-4.713-0.832-6.275-2.496 c-1.564-1.648-2.367-3.773-2.396-6.378c0.029-2.603,0.832-4.729,2.396-6.376C92.205,26.958,94.299,26.125,96.918,26.125z M96.918,41.772c2.012,0,3.594-0.651,4.746-1.953c1.121-1.252,1.684-2.859,1.684-4.82c0-1.96-0.562-3.566-1.684-4.82 c-1.152-1.301-2.734-1.953-4.746-1.953c-2.011,0-3.593,0.651-4.746,1.953c-1.12,1.252-1.681,2.859-1.681,4.82 s0.561,3.568,1.681,4.82C93.325,41.121,94.907,41.772,96.918,41.772z"/>
        <path d="M116.891,26.373c2.752,0,4.944,0.923,6.574,2.769c0.727,0.81,1.266,1.728,1.619,2.756 c0.354,1.031,0.532,2.064,0.532,3.104s-0.181,2.073-0.532,3.104c-0.354,1.026-0.895,1.945-1.619,2.756 c-1.63,1.846-3.822,2.769-6.574,2.769h-4.969c-0.312,0-0.576-0.106-0.79-0.321c-0.215-0.213-0.321-0.478-0.321-0.789V27.511 c0-0.312,0.106-0.58,0.321-0.803c0.214-0.225,0.479-0.334,0.79-0.334L116.891,26.373L116.891,26.373z M116.618,41.524 c2.043,0,3.69-0.604,4.942-1.805c1.221-1.203,1.83-2.777,1.83-4.725c0-1.941-0.609-3.52-1.83-4.723 c-1.252-1.2-2.899-1.803-4.942-1.803h-3.562v13.049h3.562V41.524z"/>
        <path d="M138.471,26.125c2.604,0,4.694,0.833,6.277,2.497c1.531,1.631,2.332,3.757,2.396,6.376 c-0.064,2.62-0.865,4.746-2.396,6.378c-1.583,1.664-3.675,2.496-6.277,2.496c-2.619,0-4.714-0.832-6.277-2.496 c-1.564-1.648-2.363-3.773-2.396-6.378c0.032-2.603,0.831-4.729,2.396-6.376C133.757,26.958,135.852,26.125,138.471,26.125z M138.471,41.772c2.01,0,3.592-0.651,4.744-1.953c1.121-1.252,1.684-2.859,1.684-4.82c0-1.96-0.562-3.566-1.684-4.82 c-1.152-1.301-2.734-1.953-4.744-1.953c-2.012,0-3.595,0.651-4.746,1.953c-1.119,1.252-1.682,2.859-1.682,4.82 s0.562,3.568,1.682,4.82C134.876,41.121,136.459,41.772,138.471,41.772z"/>
    </g>
</svg>
