<svg xmlns="http://www.w3.org/2000/svg" width="220" height="70" viewBox="0 0 220 70">
    <g fill="#BEBDBF">
        <path d="M90.566,35.366c0,0.448-0.019,0.877-0.056,1.288c-0.168,1.904-0.826,3.421-1.974,4.55 c-1.148,1.131-2.702,1.694-4.662,1.694s-3.514-0.563-4.662-1.694c-1.148-1.129-1.806-2.646-1.974-4.55 c-0.019-0.204-0.028-0.635-0.028-1.288c0-0.69,0.009-1.138,0.028-1.345c0.149-1.903,0.802-3.42,1.96-4.549 c1.157-1.13,2.716-1.695,4.676-1.695s3.519,0.564,4.676,1.695c1.157,1.129,1.81,2.646,1.96,4.549 C90.548,34.434,90.566,34.88,90.566,35.366z M86.772,31.277c-0.682-0.728-1.647-1.092-2.898-1.092s-2.217,0.364-2.898,1.092 c-0.682,0.729-1.078,1.689-1.19,2.885c-0.019,0.224-0.028,0.625-0.028,1.204c0,0.56,0.009,0.942,0.028,1.147 c0.112,1.194,0.508,2.155,1.19,2.885c0.681,0.728,1.647,1.093,2.898,1.093c1.25,0,2.216-0.365,2.898-1.093 c0.681-0.729,1.078-1.688,1.19-2.885c0.037-0.41,0.056-0.794,0.056-1.147c0-0.354-0.019-0.757-0.056-1.204 C87.851,32.967,87.454,32.006,86.772,31.277z"/>
        <path d="M96.041,27.904c-0.196,0.215-0.473,0.322-0.826,0.322H93.59c-0.168,0-0.312-0.061-0.434-0.183 c-0.121-0.121-0.182-0.267-0.182-0.435c0-0.074,0.01-0.14,0.027-0.195l1.457-3.78c0.224-0.597,0.625-0.896,1.203-0.896h0.7 c0.169,0,0.312,0.061,0.435,0.182c0.121,0.122,0.182,0.266,0.182,0.434v0.057l-0.561,3.724 C96.362,27.434,96.236,27.689,96.041,27.904z"/>
        <path d="M117.839,28.729c0.168-0.447,0.485-0.672,0.952-0.672h0.924c0.186,0,0.346,0.066,0.477,0.196 c0.129,0.13,0.195,0.29,0.195,0.476l-0.027,0.225l-4.283,12.88c-0.168,0.522-0.447,0.783-0.842,0.783h-0.865 c-0.227,0-0.402-0.069-0.533-0.209c-0.131-0.142-0.242-0.332-0.336-0.574l-3.332-9.296l-3.332,9.296 c-0.093,0.242-0.205,0.435-0.336,0.574c-0.131,0.139-0.308,0.209-0.531,0.209H105.1c-0.392,0-0.672-0.261-0.84-0.783l-4.284-12.88 l-0.027-0.225c0-0.186,0.064-0.345,0.195-0.476s0.289-0.196,0.477-0.196h0.924c0.466,0,0.783,0.225,0.951,0.672l3.137,9.354 l3.359-9.354c0.168-0.447,0.457-0.672,0.869-0.672h0.615c0.411,0,0.7,0.225,0.868,0.672l3.36,9.354L117.839,28.729z"/>
        <path d="M134.135,29.682c1.156,1.271,1.736,2.996,1.736,5.18v0.757c0,0.206-0.075,0.382-0.225,0.532 c-0.149,0.147-0.326,0.224-0.533,0.224h-9.631v0.168c0.037,1.231,0.414,2.199,1.135,2.897c0.718,0.701,1.646,1.052,2.785,1.052 c0.934,0,1.656-0.121,2.17-0.365c0.514-0.242,0.976-0.588,1.387-1.035c0.148-0.149,0.283-0.252,0.404-0.309 c0.123-0.056,0.285-0.084,0.49-0.084h0.84c0.225,0,0.412,0.075,0.561,0.225c0.15,0.149,0.215,0.326,0.197,0.531 c-0.076,0.504-0.352,1.022-0.826,1.555c-0.477,0.531-1.158,0.979-2.045,1.345c-0.887,0.363-1.945,0.545-3.178,0.545 c-1.195,0-2.26-0.273-3.191-0.823c-0.934-0.552-1.676-1.312-2.227-2.283s-0.883-2.062-0.994-3.274 c-0.037-0.561-0.057-0.988-0.057-1.289c0-0.297,0.02-0.728,0.057-1.287c0.111-1.157,0.443-2.202,0.994-3.137 c0.551-0.933,1.287-1.67,2.211-2.212c0.926-0.542,1.994-0.812,3.207-0.812C131.4,27.777,132.977,28.413,134.135,29.682z M133.352,34.021v-0.084c0-1.139-0.359-2.049-1.078-2.73s-1.676-1.021-2.871-1.021c-1.082,0-2.002,0.346-2.758,1.035 c-0.756,0.691-1.144,1.596-1.162,2.717v0.084H133.352z"/>
        <path d="M142.143,42.395c-0.148,0.148-0.326,0.225-0.531,0.225h-1.035c-0.205,0-0.385-0.074-0.531-0.225 c-0.148-0.148-0.227-0.326-0.227-0.533V23.494c0-0.205,0.074-0.383,0.227-0.532c0.146-0.149,0.326-0.224,0.531-0.224h1.035 c0.205,0,0.383,0.074,0.531,0.224s0.226,0.327,0.226,0.532v18.367C142.366,42.066,142.291,42.244,142.143,42.395z"/>
        <path d="M149.449,42.395c-0.148,0.148-0.326,0.225-0.531,0.225h-1.036c-0.206,0-0.383-0.074-0.532-0.225 c-0.147-0.149-0.224-0.326-0.224-0.533V23.494c0-0.205,0.074-0.383,0.224-0.532c0.15-0.149,0.326-0.224,0.532-0.224h1.036 c0.205,0,0.383,0.074,0.531,0.224c0.15,0.149,0.225,0.327,0.225,0.532v18.367C149.674,42.066,149.6,42.244,149.449,42.395z"/>
    </g>
</svg>
