<svg xmlns="http://www.w3.org/2000/svg" width="220" height="70" viewBox="0 0 220 70">
    <g fill="#BEBDBF">
        <path d="M41.691,30.438c1.08-1.584,2.69-2.376,4.833-2.376c1.943,0,3.519,0.675,4.725,2.024 c1.206,1.332,1.81,2.979,1.81,4.941c0,1.962-0.604,3.609-1.81,4.941c-1.206,1.351-2.826,2.024-4.86,2.024 c-2.034,0-3.6-0.801-4.697-2.403v7.533h-2.025V28.277h2.025L41.691,30.438L41.691,30.438z M46.254,29.897 c-1.458,0-2.61,0.504-3.456,1.512c-0.81,0.954-1.215,2.16-1.215,3.618c0,1.458,0.405,2.665,1.215,3.618 c0.846,1.011,1.998,1.514,3.456,1.514c1.44,0,2.61-0.503,3.51-1.514c0.847-0.953,1.27-2.16,1.27-3.618 c0-1.458-0.423-2.664-1.27-3.618C48.864,30.401,47.694,29.897,46.254,29.897z"/>
        <path d="M61.186,40.157c1.817,0,3.122-0.757,3.915-2.269h2.214c-0.469,1.225-1.211,2.215-2.228,2.971 c-1.018,0.756-2.327,1.134-3.929,1.134c-2.034,0-3.69-0.675-4.968-2.024c-1.242-1.313-1.863-2.961-1.863-4.941 c0-1.998,0.594-3.646,1.782-4.941c1.26-1.35,2.897-2.024,4.914-2.024c2.016,0,3.653,0.675,4.914,2.024 c1.188,1.296,1.781,2.943,1.781,4.941v0.811H56.406c0.144,1.241,0.639,2.269,1.485,3.078 C58.755,39.744,59.853,40.157,61.186,40.157z M61.023,29.897c-1.242,0-2.286,0.387-3.132,1.16c-0.793,0.738-1.278,1.701-1.458,2.89 h9.18c-0.181-1.188-0.666-2.151-1.458-2.89C63.309,30.284,62.266,29.897,61.023,29.897z"/>
        <path d="M76.791,28.062v2.024h-0.243c-1.458,0-2.646,0.585-3.563,1.755c-0.864,1.116-1.296,2.448-1.296,3.997v5.939 h-2.025v-13.5h2.025v3.32c0.432-1.403,1.367-2.438,2.808-3.104c0.594-0.288,1.313-0.432,2.16-0.432L76.791,28.062L76.791,28.062z"/>
        <path d="M84.378,33.596l5.832,8.181h-2.484L83.001,35l-2.538,2.512v4.266h-2.025V22.878h2.025v12.096l6.507-6.695 h2.835L84.378,33.596z"/>
        <path d="M93.558,23.363v2.646H91.37v-2.646H93.558z M91.451,28.277h2.025v13.5h-2.025V28.277z"/>
        <path d="M98.472,28.277v2.105c0.485-0.647,1.08-1.196,1.781-1.646c0.702-0.45,1.503-0.675,2.403-0.675 c0.9,0,1.674,0.126,2.322,0.378c0.647,0.252,1.215,0.63,1.701,1.134c1.115,1.098,1.674,2.547,1.674,4.347v7.857h-2.025v-7.804 c0-1.241-0.351-2.231-1.053-2.97c-0.702-0.737-1.611-1.106-2.727-1.106c-1.135,0-2.098,0.378-2.89,1.134 c-0.792,0.774-1.188,1.764-1.188,2.97v7.776h-2.025v-13.5H98.472z"/>
        <path d="M119.126,31.896c-0.181-1.404-1.31-2.106-3.39-2.106c-2.078,0-3.118,0.648-3.118,1.944 c0,0.54,0.221,0.949,0.661,1.229c0.441,0.279,0.994,0.509,1.66,0.688c0.666,0.179,1.392,0.347,2.174,0.5 c0.783,0.152,1.508,0.369,2.175,0.647c0.665,0.279,1.219,0.661,1.66,1.147c0.44,0.486,0.661,1.152,0.661,1.998 c0,1.312-0.495,2.316-1.484,3.01c-0.99,0.693-2.332,1.04-4.023,1.04c-1.799,0-3.229-0.45-4.293-1.351 c-0.972-0.791-1.494-1.826-1.564-3.104h2.105c0.125,1.239,0.828,2.078,2.105,2.51c0.468,0.146,0.932,0.218,1.391,0.218 s0.887-0.026,1.282-0.08c0.396-0.056,0.782-0.153,1.161-0.3c0.863-0.342,1.296-0.926,1.296-1.754c0-0.559-0.221-0.985-0.662-1.282 c-0.44-0.298-0.993-0.539-1.659-0.729s-1.392-0.36-2.175-0.515c-0.782-0.151-1.508-0.363-2.173-0.634 c-0.667-0.27-1.221-0.639-1.661-1.106c-0.44-0.467-0.661-1.116-0.661-1.944c0-1.224,0.445-2.173,1.336-2.849 c0.894-0.675,2.211-1.012,3.957-1.012c1.654,0,2.961,0.396,3.914,1.188c0.792,0.666,1.252,1.549,1.377,2.646L119.126,31.896 L119.126,31.896z"/>
        <path d="M130.223,25.091c0.504-0.432,1.125-0.773,1.862-1.025c0.738-0.252,1.58-0.378,2.524-0.378 c0.945,0,1.75,0.107,2.416,0.323c0.666,0.217,1.231,0.505,1.701,0.864c0.847,0.648,1.377,1.494,1.594,2.538h-2.133 c-0.146-0.432-0.516-0.854-1.107-1.269c-0.594-0.415-1.323-0.621-2.188-0.621c-0.863,0-1.539,0.081-2.024,0.242 c-0.486,0.162-0.892,0.388-1.216,0.676c-0.611,0.54-0.918,1.26-0.918,2.16c0,0.972,0.352,1.728,1.054,2.268 c0.63,0.468,1.448,0.702,2.457,0.702h4.347v-1.188h1.891v1.188h1.757v1.809h-1.757v3.431c0,1.547-0.539,2.789-1.618,3.727 c-1.101,0.973-2.593,1.458-4.482,1.458c-1.71,0-3.177-0.495-4.399-1.485c-1.241-1.008-1.862-2.295-1.862-3.859 c0-0.973,0.288-1.835,0.864-2.592c0.574-0.756,1.386-1.331,2.43-1.728c-0.666-0.198-1.27-0.648-1.809-1.35 c-0.597-0.792-0.894-1.566-0.894-2.322c0-0.756,0.126-1.432,0.378-2.025C129.341,26.038,129.718,25.523,130.223,25.091z M134.002,33.38c-1.098,0-2.023,0.334-2.781,0.999c-0.72,0.613-1.078,1.387-1.078,2.322c0,0.938,0.396,1.746,1.188,2.43 c0.792,0.703,1.812,1.055,3.051,1.055c1.332,0,2.386-0.334,3.159-1c0.702-0.576,1.053-1.312,1.053-2.215V33.38H134.002z"/>
        <path d="M155.439,40.157c0.865,0,1.629-0.243,2.295-0.729c0.666-0.484,1.151-1.115,1.459-1.889h2.187 c-0.414,1.332-1.17,2.402-2.269,3.213c-1.151,0.828-2.521,1.241-4.104,1.241c-1.979,0-3.591-0.675-4.833-2.024 c-1.206-1.313-1.809-2.961-1.809-4.941s0.603-3.627,1.809-4.941c1.242-1.35,2.854-2.024,4.833-2.024 c1.584,0,2.952,0.414,4.104,1.241c1.099,0.811,1.854,1.882,2.269,3.213h-2.187c-0.308-0.773-0.793-1.403-1.459-1.89 c-0.666-0.487-1.43-0.729-2.295-0.729c-0.863,0-1.599,0.135-2.201,0.404c-0.602,0.271-1.11,0.64-1.524,1.107 c-0.882,0.972-1.321,2.178-1.321,3.618s0.439,2.646,1.321,3.618C152.613,39.654,153.855,40.157,155.439,40.157z"/>
        <path d="M169.21,28.062c2.017,0,3.653,0.675,4.914,2.024c1.188,1.296,1.78,2.943,1.78,4.941 c0,1.999-0.594,3.645-1.78,4.941c-1.261,1.351-2.897,2.024-4.914,2.024s-3.653-0.676-4.914-2.024 c-1.188-1.297-1.782-2.942-1.782-4.941c0-1.998,0.594-3.646,1.782-4.941C165.557,28.736,167.193,28.062,169.21,28.062z M169.21,40.157c1.458,0,2.608-0.503,3.456-1.513c0.811-0.953,1.215-2.16,1.215-3.619c0-1.458-0.404-2.664-1.215-3.618 c-0.848-1.008-1.998-1.512-3.456-1.512s-2.61,0.504-3.456,1.512c-0.811,0.954-1.215,2.16-1.215,3.618 c0,1.458,0.404,2.666,1.215,3.619C166.6,39.654,167.752,40.157,169.21,40.157z"/>
        <path d="M180.334,39.023v2.754h-2.619v-2.754H180.334z"/>
    </g>
</svg>
