<svg xmlns="http://www.w3.org/2000/svg" width="160" height="70" viewBox="0 0 160 70">
    <g fill="#BEBDBF">
        <path d="M50.713,31.21h-3.54v9.165h-1.68V31.21h-3.555v-1.485h8.774V31.21L50.713,31.21z"/>
        <path d="M59.323,38.891v1.484h-7.305v-10.65h7.17v1.485h-5.49v3.03h4.755v1.395h-4.755v3.256H59.323z"/>
        <path d="M60.313,34.975c0-0.64,0.115-1.275,0.345-1.912c0.23-0.635,0.562-1.205,0.998-1.709 c0.436-0.506,0.968-0.914,1.598-1.224s1.346-0.465,2.146-0.465c0.95,0,1.768,0.215,2.453,0.646 c0.685,0.431,1.196,0.989,1.538,1.681l-1.32,0.885c-0.14-0.319-0.315-0.59-0.525-0.812c-0.21-0.219-0.438-0.395-0.683-0.523 s-0.498-0.225-0.757-0.275c-0.26-0.057-0.516-0.084-0.766-0.084c-0.54,0-1.018,0.111-1.433,0.338 c-0.415,0.225-0.763,0.521-1.042,0.893c-0.279,0.371-0.49,0.785-0.63,1.244c-0.14,0.461-0.21,0.921-0.21,1.381 c0,0.52,0.083,1.016,0.248,1.484c0.165,0.471,0.396,0.885,0.697,1.246c0.3,0.357,0.654,0.646,1.064,0.859 c0.41,0.216,0.86,0.323,1.351,0.323c0.25,0,0.513-0.032,0.787-0.099c0.275-0.065,0.535-0.17,0.78-0.314 c0.245-0.146,0.472-0.327,0.683-0.547c0.21-0.223,0.385-0.485,0.524-0.797l1.396,0.797c-0.17,0.398-0.407,0.752-0.713,1.057 c-0.305,0.307-0.646,0.562-1.026,0.771s-0.785,0.369-1.215,0.479c-0.431,0.11-0.855,0.165-1.275,0.165 c-0.74,0-1.415-0.16-2.025-0.48c-0.609-0.317-1.138-0.734-1.583-1.252c-0.444-0.515-0.789-1.1-1.034-1.754 C60.436,36.322,60.313,35.654,60.313,34.975z"/>
        <path d="M79.724,29.725v10.65h-1.695V35.68h-5.37v4.695h-1.68v-10.65h1.68v4.455h5.37v-4.455H79.724z"/>
        <path d="M93.374,31.54h-3.391v8.835h-2.07V31.54h-3.404v-1.815h8.866L93.374,31.54L93.374,31.54z"/>
        <path d="M94.558,40.375v-10.65h4.711c0.488,0,0.941,0.104,1.357,0.31c0.414,0.204,0.77,0.475,1.07,0.81 c0.3,0.336,0.535,0.717,0.705,1.141c0.17,0.426,0.254,0.854,0.254,1.283c0,0.688-0.172,1.315-0.518,1.883 c-0.345,0.563-0.812,0.973-1.402,1.223l2.506,4.005h-2.34l-2.234-3.569h-2.039v3.569L94.558,40.375L94.558,40.375z M96.628,34.99 h2.596c0.189,0,0.367-0.045,0.531-0.135c0.166-0.09,0.309-0.213,0.428-0.369c0.121-0.154,0.215-0.336,0.285-0.547 c0.07-0.209,0.104-0.437,0.104-0.674c0-0.25-0.041-0.48-0.119-0.69c-0.08-0.21-0.188-0.394-0.322-0.548 c-0.135-0.155-0.289-0.275-0.465-0.36c-0.179-0.085-0.354-0.127-0.533-0.127h-2.504L96.628,34.99L96.628,34.99z"/>
        <path d="M111.913,38.561v1.814h-7.395v-10.65h7.26v1.815h-5.191v2.565h4.486v1.68h-4.486v2.775H111.913 L111.913,38.561z"/>
        <path d="M115.497,33.55v6.825h-2.068v-10.65h1.604l5.553,6.99V29.74h2.067v10.635h-1.68L115.497,33.55z"/>
        <path d="M124.724,40.375v-10.65h3.869c0.869,0,1.633,0.142,2.287,0.42c0.652,0.28,1.203,0.66,1.643,1.142 c0.44,0.481,0.771,1.042,0.99,1.688c0.221,0.646,0.33,1.332,0.33,2.062c0,0.812-0.123,1.543-0.367,2.196 c-0.246,0.654-0.598,1.216-1.059,1.681c-0.459,0.465-1.014,0.823-1.656,1.08c-0.646,0.256-1.367,0.383-2.168,0.383L124.724,40.375 L124.724,40.375z M131.757,35.035c0-0.51-0.068-0.98-0.209-1.41c-0.143-0.43-0.346-0.8-0.615-1.109 c-0.27-0.311-0.602-0.55-0.998-0.721c-0.395-0.17-0.842-0.255-1.342-0.255h-1.801v7.021h1.801c0.51,0,0.963-0.09,1.355-0.271 c0.395-0.181,0.727-0.429,0.99-0.743c0.268-0.314,0.467-0.688,0.606-1.117C131.687,36.001,131.757,35.535,131.757,35.035z"/>
        <path d="M141.642,32.516c-0.067-0.07-0.197-0.166-0.381-0.285c-0.188-0.121-0.41-0.236-0.676-0.354 c-0.268-0.115-0.555-0.212-0.863-0.292c-0.308-0.08-0.625-0.12-0.943-0.12c-0.569,0-0.995,0.105-1.274,0.314 c-0.28,0.211-0.42,0.506-0.42,0.886c0,0.22,0.054,0.403,0.156,0.548c0.104,0.145,0.258,0.271,0.459,0.383 c0.198,0.109,0.45,0.209,0.756,0.299c0.308,0.09,0.658,0.188,1.06,0.285c0.521,0.141,0.991,0.291,1.418,0.45 c0.424,0.16,0.782,0.36,1.08,0.601c0.295,0.24,0.521,0.527,0.682,0.861c0.16,0.336,0.24,0.748,0.24,1.238 c0,0.57-0.105,1.059-0.322,1.463c-0.215,0.404-0.504,0.732-0.861,0.982c-0.359,0.25-0.779,0.432-1.262,0.547 c-0.48,0.115-0.979,0.173-1.5,0.173c-0.801,0-1.59-0.12-2.367-0.36c-0.781-0.24-1.48-0.58-2.104-1.02l0.916-1.785 c0.09,0.09,0.252,0.207,0.485,0.354c0.236,0.146,0.515,0.289,0.834,0.436c0.32,0.146,0.675,0.268,1.063,0.365 c0.392,0.103,0.789,0.15,1.199,0.15c1.142,0,1.711-0.365,1.711-1.095c0-0.24-0.063-0.44-0.194-0.601 c-0.132-0.162-0.313-0.299-0.556-0.42c-0.239-0.119-0.53-0.229-0.871-0.33c-0.34-0.102-0.719-0.205-1.139-0.314 c-0.51-0.141-0.953-0.293-1.328-0.457c-0.375-0.166-0.688-0.357-0.938-0.578c-0.25-0.22-0.439-0.48-0.562-0.779 c-0.125-0.301-0.188-0.653-0.188-1.063c0-0.54,0.1-1.021,0.301-1.438c0.199-0.422,0.477-0.771,0.832-1.052 c0.354-0.278,0.768-0.491,1.236-0.637c0.471-0.146,0.977-0.22,1.516-0.22c0.75,0,1.439,0.119,2.068,0.354 c0.633,0.235,1.182,0.515,1.65,0.833L141.642,32.516z"/>
        <path d="M17.065,25v20h20V25H17.065z M31.245,32.982H28.39v7.56h-2.73v-7.56h-2.87v-2.381h8.456V32.982z"/>
    </g>
</svg>
