<svg xmlns="http://www.w3.org/2000/svg" width="160" height="70" viewBox="0 0 160 70">
    <g fill="#BEBDBF">
        <path d="M54.318,25.869c0.866,0,1.586-0.028,2.159-0.083v0.566c-0.472,0.187-0.938,0.549-1.397,1.088 c-0.462,0.539-0.868,1.303-1.219,2.291l-5.979,16.184c-0.213-0.018-0.546-0.027-0.997-0.027c-0.435,0-0.753,0.01-0.954,0.027 l-7.241-17.748c-0.24-0.627-0.521-1.082-0.837-1.363c-0.318-0.281-0.636-0.431-0.949-0.451v-0.565 c1.137,0.055,2.575,0.083,4.32,0.083c1.928,0,3.363-0.028,4.305-0.083v0.565c-0.712,0.028-1.221,0.113-1.528,0.256 c-0.312,0.146-0.464,0.41-0.464,0.798c0,0.296,0.113,0.737,0.346,1.327l4.998,12.695l3.488-9.4 c0.525-1.484,0.789-2.639,0.789-3.461c0-0.756-0.201-1.307-0.604-1.652c-0.4-0.348-0.994-0.533-1.777-0.562v-0.565 C52.049,25.841,53.229,25.869,54.318,25.869z"/>
        <path d="M66.827,32.666c1.231,1.237,1.849,3.199,1.849,5.884c0,2.676-0.615,4.631-1.849,5.863 c-1.232,1.23-2.929,1.85-5.089,1.85c-2.158,0-3.856-0.617-5.095-1.85c-1.234-1.232-1.854-3.188-1.854-5.863 c0-2.675,0.619-4.635,1.854-5.877c1.237-1.24,2.937-1.861,5.095-1.861C63.898,30.812,65.595,31.429,66.827,32.666z M59.794,33.138 c-0.483,1.182-0.728,2.986-0.728,5.412c0,2.418,0.243,4.215,0.728,5.387s1.136,1.758,1.944,1.758c0.822,0,1.471-0.584,1.945-1.752 c0.478-1.166,0.713-2.965,0.713-5.393c0-2.437-0.235-4.242-0.713-5.42c-0.476-1.177-1.123-1.765-1.945-1.765 C60.93,31.365,60.278,31.956,59.794,33.138z"/>
        <path d="M77.321,31.565c0.68-0.502,1.446-0.754,2.306-0.754c0.572,0,1.052,0.125,1.438,0.375 c0.388,0.25,0.674,0.567,0.856,0.961c0.187,0.393,0.277,0.813,0.277,1.268c0,0.701-0.202,1.273-0.609,1.717 c-0.403,0.442-0.938,0.664-1.604,0.664c-0.646,0-1.155-0.164-1.529-0.49c-0.374-0.328-0.562-0.77-0.562-1.322 c0-0.904,0.416-1.643,1.246-2.215c-0.12-0.026-0.235-0.043-0.347-0.043c-0.13,0-0.276,0.023-0.442,0.069 c-0.479,0.074-0.919,0.304-1.314,0.687c-0.396,0.383-0.708,0.844-0.935,1.377c-0.228,0.535-0.339,1.059-0.339,1.563v7.519 c0,0.877,0.212,1.483,0.637,1.82c0.424,0.336,1.103,0.504,2.035,0.504v0.596c-2.362-0.071-3.868-0.108-4.514-0.108 c-0.603,0-1.951,0.037-4.057,0.108v-0.596c0.45,0,0.81-0.06,1.072-0.179c0.264-0.121,0.452-0.328,0.567-0.624 c0.115-0.295,0.174-0.706,0.174-1.23v-8.942c0-0.877-0.135-1.513-0.401-1.903c-0.27-0.393-0.738-0.589-1.411-0.589v-0.598 c0.6,0.055,1.187,0.083,1.758,0.083c1.67,0,3.05-0.129,4.141-0.387v2.629C76.125,32.722,76.645,32.069,77.321,31.565z"/>
        <path d="M89.082,31.503c0.757-0.462,1.633-0.691,2.63-0.691s1.881,0.271,2.652,0.815 c0.769,0.545,1.375,1.366,1.812,2.464c0.438,1.1,0.656,2.451,0.656,4.057c0,1.884-0.289,3.43-0.863,4.64 c-0.575,1.208-1.353,2.09-2.325,2.646c-0.976,0.553-2.074,0.83-3.304,0.83c-1.312,0-2.366-0.332-3.171-0.998 c-0.102-0.01-0.249-0.014-0.441-0.014c-0.617,0-1.222,0.102-1.808,0.298c-0.586,0.197-1.056,0.454-1.405,0.769l-0.431-0.264 c0.131-0.479,0.194-1.007,0.194-1.578V27.087c0-0.876-0.137-1.51-0.407-1.902c-0.271-0.392-0.741-0.588-1.406-0.588v-0.596 c0.593,0.057,1.179,0.083,1.761,0.083c1.659,0,3.041-0.134,4.139-0.401v9.83C87.752,32.634,88.325,31.965,89.082,31.503z M89.469,45.666c2.06,0,3.089-2.371,3.089-7.116c0-2.324-0.214-3.994-0.644-5.004c-0.431-1.011-1.056-1.516-1.877-1.516 c-0.618,0-1.179,0.221-1.683,0.664s-0.832,1.044-0.99,1.801v10.41C87.983,45.412,88.687,45.666,89.469,45.666z"/>
        <path d="M102.664,38.426c0,1.257,0.175,2.296,0.524,3.121c0.351,0.826,0.806,1.431,1.363,1.813 c0.561,0.384,1.156,0.574,1.795,0.574c1.559,0,2.809-0.756,3.75-2.271l0.497,0.166c-0.237,0.773-0.608,1.499-1.112,2.167 c-0.504,0.669-1.144,1.214-1.91,1.635c-0.771,0.419-1.65,0.632-2.637,0.632c-1.305,0-2.445-0.277-3.429-0.832 c-0.981-0.555-1.75-1.396-2.299-2.527c-0.548-1.129-0.822-2.534-0.822-4.215c0-1.715,0.293-3.162,0.888-4.34 c0.59-1.178,1.405-2.062,2.449-2.65c1.043-0.59,2.245-0.885,3.611-0.885c3.554,0,5.331,2.095,5.331,6.285h-7.962 C102.678,37.373,102.664,37.815,102.664,38.426z M106.644,32.874c-0.326-0.979-0.824-1.468-1.488-1.468 c-0.674,0-1.231,0.417-1.682,1.253c-0.447,0.835-0.724,2.134-0.824,3.896h4.443C107.122,35.08,106.972,33.853,106.644,32.874z"/>
        <path d="M114.258,44.228c0.615,0.922,1.484,1.383,2.611,1.383c0.553,0,1.024-0.168,1.418-0.506 c0.394-0.334,0.589-0.842,0.589-1.516c0-0.525-0.118-0.997-0.354-1.412c-0.234-0.414-0.531-0.785-0.893-1.107 c-0.359-0.32-0.898-0.766-1.621-1.327c-0.877-0.71-1.533-1.271-1.973-1.677c-0.438-0.403-0.812-0.887-1.127-1.444 c-0.315-0.562-0.473-1.192-0.473-1.904c0-0.812,0.223-1.514,0.664-2.104c0.442-0.59,1.037-1.038,1.785-1.344 c0.748-0.305,1.561-0.457,2.438-0.457c0.719,0,1.379,0.088,1.979,0.265c0.601,0.175,1.07,0.378,1.411,0.608 c0.186,0.129,0.352,0.192,0.498,0.192c0.352,0,0.573-0.346,0.665-1.038h0.624c-0.076,0.951-0.109,2.612-0.109,4.984h-0.623 c-0.166-1.237-0.539-2.277-1.117-3.122c-0.574-0.845-1.414-1.267-2.51-1.267c-0.563,0-1.025,0.16-1.387,0.482 c-0.357,0.323-0.539,0.768-0.539,1.329c0,0.637,0.212,1.187,0.639,1.646c0.424,0.463,0.936,0.904,1.535,1.33 c0.601,0.426,1.039,0.743,1.314,0.955c0.773,0.582,1.39,1.09,1.847,1.523c0.456,0.434,0.829,0.924,1.116,1.473 c0.284,0.551,0.43,1.182,0.43,1.893c0,0.83-0.244,1.562-0.729,2.199c-0.485,0.637-1.139,1.129-1.959,1.476 c-0.822,0.347-1.723,0.521-2.699,0.521c-1.007,0-1.883-0.199-2.631-0.597c-0.562-0.287-1.006-0.483-1.328-0.597 c-0.055-0.019-0.104-0.026-0.141-0.026c-0.305,0-0.523,0.336-0.662,1.011h-0.623c0.072-1.08,0.109-2.967,0.109-5.662h0.623 C113.245,42.024,113.644,43.302,114.258,44.228z"/>
    </g>
</svg>
