<svg xmlns="http://www.w3.org/2000/svg" width="220" height="70" viewBox="0 0 220 70">
    <g fill="#BEBDBF">
        <path d="M65.955,31.091v0.803h-2.062v-0.803c0-0.114-0.041-0.213-0.125-0.294c-0.083-0.084-0.181-0.126-0.295-0.126 h-8.779c-0.113,0-0.213,0.042-0.295,0.126c-0.083,0.081-0.125,0.18-0.125,0.294v2.939c0,0.114,0.042,0.212,0.125,0.296 c0.082,0.083,0.182,0.124,0.295,0.124h8.779c0.687,0,1.272,0.24,1.756,0.725c0.484,0.484,0.725,1.07,0.725,1.757v2.938 c0,0.685-0.241,1.274-0.725,1.755c-0.483,0.484-1.069,0.727-1.756,0.727h-8.779c-0.688,0-1.272-0.242-1.756-0.727 c-0.483-0.48-0.725-1.07-0.725-1.755v-0.804h2.061v0.804c0,0.112,0.042,0.212,0.125,0.295c0.082,0.082,0.182,0.126,0.295,0.126 h8.779c0.114,0,0.212-0.044,0.295-0.126c0.083-0.083,0.125-0.183,0.125-0.295v-2.938c0-0.113-0.041-0.214-0.125-0.297 c-0.083-0.082-0.181-0.121-0.295-0.121h-8.779c-0.688,0-1.272-0.242-1.756-0.728c-0.483-0.483-0.725-1.068-0.725-1.756v-2.939 c0-0.687,0.242-1.271,0.725-1.755c0.483-0.483,1.068-0.726,1.756-0.726h8.779c0.687,0,1.272,0.242,1.756,0.726 C65.714,29.819,65.955,30.404,65.955,31.091z"/>
        <path d="M71.279,28.61h8.778c0.688,0,1.272,0.242,1.755,0.726c0.483,0.483,0.727,1.068,0.727,1.755v11.261h-2.062 v-4.81h-9.619v4.81h-2.06V31.091c0-0.687,0.241-1.271,0.725-1.755C70.006,28.853,70.591,28.61,71.279,28.61z M70.858,35.481h9.619 V31.09c0-0.114-0.041-0.213-0.125-0.294c-0.082-0.084-0.182-0.126-0.296-0.126h-8.778c-0.115,0-0.213,0.042-0.296,0.126 c-0.083,0.081-0.125,0.18-0.125,0.294L70.858,35.481L70.858,35.481z"/>
        <path d="M97.158,39.604V28.61h2.059v13.74h-2.441l-9.237-10.992V42.35h-2.06V28.61h2.441L97.158,39.604z"/>
        <path d="M104.561,28.61h8.779c0.688,0,1.271,0.242,1.756,0.726c0.482,0.483,0.725,1.068,0.725,1.755v8.779 c0,0.685-0.24,1.274-0.725,1.755c-0.484,0.484-1.068,0.727-1.756,0.727h-8.779c-0.686,0-1.273-0.242-1.758-0.727 c-0.482-0.48-0.725-1.07-0.725-1.755v-8.779c0-0.687,0.242-1.271,0.725-1.755C103.287,28.853,103.875,28.61,104.561,28.61z M104.561,40.291h8.779c0.115,0,0.213-0.044,0.297-0.126c0.08-0.083,0.121-0.183,0.121-0.295v-8.779 c0-0.114-0.041-0.213-0.121-0.294c-0.084-0.084-0.182-0.126-0.297-0.126h-8.779c-0.115,0-0.213,0.042-0.295,0.126 c-0.084,0.081-0.125,0.18-0.125,0.294v8.779c0,0.112,0.041,0.212,0.125,0.295C104.348,40.247,104.445,40.291,104.561,40.291z"/>
        <path d="M136.49,28.61h2.189l-4.996,13.74h-1.682l-3.912-10.706l-3.893,10.706l-0.041-0.021l0.021,0.021h-1.659 l-5.002-13.74h2.194l3.646,10.019l3.646-10.019h2.197l3.641,10.019L136.49,28.61z"/>
        <path d="M143.51,28.61h8.779c0.686,0,1.273,0.242,1.754,0.726c0.484,0.483,0.727,1.068,0.727,1.755v11.261h-2.061 v-4.81h-9.619v4.81h-2.061V31.091c0-0.687,0.242-1.271,0.725-1.755C142.238,28.853,142.822,28.61,143.51,28.61z M143.09,35.481 h9.619V31.09c0-0.114-0.043-0.213-0.125-0.294c-0.084-0.084-0.18-0.126-0.295-0.126h-8.779c-0.113,0-0.215,0.042-0.295,0.126 c-0.084,0.081-0.125,0.18-0.125,0.294V35.481z"/>
    </g>
    <path fill="#BEBDBF" d="M160.792,33.222v-3.62h-1.378V28.97h3.477v0.632h-1.39v3.62H160.792z M163.363,33.222V28.97h1.045 l1.074,3.396l1.039-3.396h1.022v4.252h-0.647v-3.569l-1.097,3.569h-0.641l-1.144-3.62v3.62H163.363z"/>
</svg>
