<svg xmlns="http://www.w3.org/2000/svg" width="103" height="12" viewBox="0 0 103 12">
    <path d="M9.564,0.575v10.65h-1.35V6.38H2.35v4.846H1V0.575h1.35v4.605h5.865V0.575H9.564z"/>
    <path d="M22.314,11.301c-0.75,0-1.433-0.152-2.047-0.458c-0.615-0.305-1.143-0.709-1.583-1.215c-0.44-0.505-0.78-1.082-1.02-1.732 c-0.24-0.65-0.36-1.314-0.36-1.995c0-0.71,0.128-1.39,0.383-2.04s0.607-1.225,1.058-1.725c0.449-0.5,0.982-0.897,1.597-1.193 C20.957,0.648,21.625,0.5,22.345,0.5c0.75,0,1.43,0.158,2.04,0.473C24.994,1.288,25.52,1.7,25.96,2.21 c0.439,0.511,0.779,1.088,1.02,1.732c0.24,0.646,0.36,1.303,0.36,1.973c0,0.711-0.128,1.391-0.383,2.041s-0.605,1.223-1.05,1.717 c-0.445,0.495-0.975,0.891-1.59,1.186S23.035,11.301,22.314,11.301z M18.67,5.9c0,0.54,0.087,1.063,0.263,1.567 c0.175,0.506,0.422,0.953,0.742,1.343c0.319,0.39,0.705,0.7,1.155,0.931c0.449,0.229,0.949,0.344,1.5,0.344 c0.569,0,1.08-0.121,1.529-0.367c0.45-0.244,0.833-0.564,1.147-0.959c0.315-0.396,0.556-0.844,0.721-1.344s0.247-1.004,0.247-1.515 c0-0.54-0.088-1.062-0.263-1.567s-0.425-0.95-0.75-1.335s-0.71-0.692-1.154-0.923C23.362,1.846,22.87,1.73,22.33,1.73 c-0.57,0-1.08,0.12-1.53,0.36c-0.45,0.239-0.833,0.555-1.147,0.944c-0.315,0.391-0.558,0.835-0.728,1.335S18.67,5.381,18.67,5.9z"/>
    <path d="M35.08,11.226V0.575h4.56c0.47,0,0.902,0.098,1.298,0.293c0.395,0.194,0.734,0.455,1.02,0.779 c0.285,0.325,0.508,0.69,0.668,1.096c0.159,0.404,0.239,0.817,0.239,1.237c0,0.37-0.052,0.728-0.157,1.072 c-0.104,0.345-0.255,0.658-0.45,0.938c-0.194,0.28-0.43,0.521-0.705,0.72c-0.274,0.201-0.582,0.346-0.922,0.436l2.58,4.08h-1.53 L39.25,7.4h-2.82v3.825H35.08z M36.43,6.2h3.225c0.28,0,0.533-0.06,0.758-0.18s0.418-0.282,0.577-0.487 c0.16-0.205,0.285-0.442,0.375-0.713c0.091-0.27,0.136-0.55,0.136-0.84c0-0.3-0.053-0.583-0.158-0.848 c-0.104-0.265-0.245-0.5-0.42-0.705s-0.38-0.365-0.614-0.479c-0.235-0.115-0.483-0.173-0.743-0.173H36.43V6.2z"/>
    <path d="M50.89,11.226V0.591h1.35v10.635H50.89z"/>
    <path d="M59.784,10.176l6.87-8.4h-6.735v-1.2h8.311v1.05l-6.75,8.4h6.75v1.2h-8.445V10.176z"/>
    <path d="M94.059,3.096v8.13h-1.35V0.575h1.05l6.6,8.295V0.591h1.351v10.635h-1.141L94.059,3.096z"/>
    <path d="M76.326,6.226C76.319,6.116,76.3,6.011,76.3,5.9c0-0.52,0.084-1.03,0.255-1.53c0.17-0.5,0.412-0.944,0.728-1.335 c0.314-0.39,0.697-0.705,1.147-0.944c0.449-0.24,0.96-0.36,1.529-0.36c0.54,0,1.033,0.115,1.478,0.345 c0.445,0.23,0.83,0.538,1.155,0.923s0.575,0.83,0.75,1.335S83.604,5.36,83.604,5.9c0,0.108-0.019,0.217-0.026,0.325h1.363 c0.006-0.104,0.028-0.205,0.028-0.311c0-0.67-0.12-1.327-0.36-1.973c-0.24-0.645-0.58-1.222-1.021-1.732 c-0.439-0.51-0.965-0.922-1.574-1.237c-0.61-0.314-1.29-0.473-2.04-0.473c-0.721,0-1.388,0.148-2.003,0.442 c-0.615,0.296-1.147,0.693-1.598,1.193c-0.449,0.5-0.802,1.074-1.058,1.725c-0.255,0.65-0.382,1.33-0.382,2.04 c0,0.109,0.022,0.216,0.029,0.325H76.326z"/>
</svg>
