<svg xmlns="http://www.w3.org/2000/svg" width="130" height="50" viewBox="0 0 130 50">
    <path fill="#000" d="M46.841,5.541c0.536,0,0.847,0.38,0.936,1.14c-0.029,1.813-1.643,6.199-4.839,13.158c0.565,0,0.848,0.107,0.848,0.322v0.117	c0,0.126-0.073,0.189-0.219,0.189H42.63c0,0.264-1.648,4.072-8.011,18.877l0.117,0.19c-0.137,0.321-0.278,0.496-0.424,0.525h-0.745	c-0.126,0-0.19-0.062-0.19-0.189c5.701-11.812,6.534-15.938,8.201-19.505H41.46c-1.647-0.136-4.03-0.205-7.149-0.205H28.83	c-3.041,3.177-6.335,6.964-9.883,11.358c-3.304,4.007-3.961,4.94-7.675,9.932c-0.263,0.204-0.512,0.306-0.745,0.306	C10.175,41.697,10,41.596,10,41.45c0.214-1.131,0.424-1.696,0.629-1.696h0.526l0.219,0.116c5.107-6.929,7.723-10.177,13.552-16.874	c1.432-1.51,2.281-2.456,2.544-2.836H27.25c-2.349,0-5.717,0.039-10.102,0.117c-0.351,0-0.565-0.146-0.643-0.439	c0.399-0.35,0.823-0.527,1.271-0.527h0.307c0.146,0,0.219,0.108,0.219,0.322h9.693C36.681,10.238,42.962,5.541,46.841,5.541z M29.356,19.531h0.117c2.7,0,6.837,0.073,12.412,0.22c3.226-6.959,4.839-11.384,4.839-13.274l-0.103-0.41	C43.171,6.369,37.416,10.857,29.356,19.531z"/>
    <path fill="#000" d="M44.545,31.605c0.467,0.194,0.701,0.48,0.701,0.857c-0.416,0.363-0.974,0.545-1.675,0.545l-0.429-0.545v-0.292	C43.143,31.898,43.61,31.709,44.545,31.605z"/>
    <path fill="#000" d="M81.5,5.354h0.678c0.188,0.013,0.284,0.094,0.284,0.245c-6.608,18.417-12.583,30-17.922,34.748	c-3.995,3.819-7.43,6.124-10.307,6.915c-1.131,0.365-1.992,0.548-2.582,0.548h-1.356c-2.073,0-3.109-0.861-3.109-2.583	c-0.088,0-0.132-0.093-0.132-0.281c0.163-2.576,2.104-6.012,5.823-10.308c4.008-3.732,8.171-6.307,12.493-7.727	c2.953-0.905,5.12-1.357,6.502-1.357h0.415v0.679h-0.133c-4.258,0.402-8.925,2.211-14,5.427c-3.895,2.964-6.608,5.954-8.141,8.969	c-1.068,1.659-1.602,3.191-1.602,4.598c0.227,1.27,1.037,1.903,2.431,1.903h0.132c3.304,0,7.695-2.619,13.173-7.857	c3.316-3.957,5.615-7.349,6.896-10.175c2.94-5.578,6.332-13.455,10.176-23.63L81.5,5.354z"/>
    <path fill="#000" d="M68.479,2.753h8.668c3.581,0,8.379,0.044,14.397,0.131l0.281,0.151l0.811-0.151h2.148c0.453,0,0.998,0.095,1.639,0.283	v0.546c-0.088,0-0.219,0.044-0.395,0.132c-3.769-0.113-6.219-0.207-7.349-0.283c-0.227,0-0.586,0.05-1.075,0.151	c-4.422-0.101-7.908-0.151-10.458-0.151h-3.505c-0.528,0-1.251,0.05-2.168,0.151c-0.101,0-0.151-0.05-0.151-0.151	c-0.904,0.101-1.583,0.151-2.035,0.151h-4.07c-3.707,0-6.966,0.132-9.779,0.396h-1.075c-0.189,0-0.282-0.088-0.282-0.264V3.714	c0-0.452,2.99-0.679,8.969-0.679C63.052,2.885,64.862,2.791,68.479,2.753z"/>
    <path fill="#000" d="M78.483,27.183c0.524,0,0.87,0.497,1.035,1.491c0,0.069-0.145,0.766-0.434,2.091c0.828-0.29,1.767-0.932,2.816-1.925	c0.193-0.11,0.392-0.166,0.6-0.166c0.207,0.11,0.358,0.166,0.455,0.166v0.269c-1.38,1.601-2.871,2.402-4.472,2.402	c0,0.372-0.4,0.814-1.201,1.325h-1.345c-0.386-0.166-0.58-0.503-0.58-1.015v-0.166c0-1.739,0.745-3.174,2.236-4.306L78.483,27.183z M76.683,30.164l-0.146,1.491v0.435h0.146c0.373-0.18,0.621-0.476,0.745-0.891C77.373,31.199,77.125,30.854,76.683,30.164z M78.028,29.274v0.58h0.146v-0.58H78.028z M78.173,28.528v0.58h0.166v-0.58H78.173z"/>
    <path fill="#000" d="M89.921,12.629c0.428,0.179,0.677,0.373,0.745,0.58v0.29c-0.11,0.594-2.201,5.963-6.272,16.107	c0,0.041-0.055,0.242-0.165,0.6c1.2-1.987,2.353-2.981,3.456-2.981h0.436c0.221,0,0.373,0.249,0.455,0.745	c-0.428,1.035-0.78,2.077-1.056,3.126c0.648-0.387,1.746-1.325,3.292-2.816h0.601c0.179,0.014,0.269,0.104,0.269,0.269v0.311	c-1.655,1.78-2.898,2.871-3.727,3.271H86.63c-0.152,0-0.297-0.145-0.436-0.435v-0.601c0-0.47,0.249-1.263,0.746-2.381h-0.166	c-1.381,2.374-2.422,3.562-3.126,3.562h-0.29c-0.538,0-0.835-0.145-0.89-0.435v-0.145c0.593-2.153,2.877-8.171,6.853-18.054	l-0.146-0.746C89.479,12.718,89.729,12.629,89.921,12.629z"/>
    <path fill="#000" d="M96.224,26.044h0.601c0.138,0,0.282,0.145,0.435,0.435v0.58c0,0.455-0.594,2.049-1.78,4.782	c0.248,0,1.491-1.097,3.728-3.292h0.745c0.193,0.028,0.29,0.131,0.29,0.311v0.166c-2.154,2.567-3.741,3.851-4.763,3.851h-0.58	l-0.745-0.125v-0.746c0-0.456,0.587-2.001,1.76-4.637h-0.145c-2.443,3.091-3.781,4.637-4.017,4.637h-1.057	c-0.179,0-0.269-0.104-0.269-0.31v-0.166c0-1.132,0.642-2.374,1.926-3.727h0.435c0.207,0.028,0.311,0.131,0.311,0.311v0.29	l-0.166,0.31h0.166C94.437,26.935,95.479,26.044,96.224,26.044z"/>
    <path fill="#000" d="M101.762,25.878h0.579c0.704,0,1.055,0.345,1.055,1.035c0,0.332-0.648,1.036-1.946,2.112	c0.331,0.372,0.629,1.159,0.892,2.36c0.704,0,2.194-0.89,4.472-2.671h0.601c0.206,0.014,0.312,0.118,0.312,0.311v0.124	c-1.726,1.615-3.569,2.712-5.529,3.292c-0.29,0.787-0.883,1.18-1.781,1.18h-0.888v-0.601c0.331-0.497,0.874-0.938,1.634-1.325	c0-0.539-0.441-1.677-1.325-3.417v-0.476C100.139,26.521,100.782,25.878,101.762,25.878z M101.017,27.97	c0.62-0.373,1.013-0.821,1.179-1.346h-0.124C101.367,26.914,101.017,27.363,101.017,27.97z"/>
    <path fill="#000" d="M110.362,27.183c0.524,0,0.869,0.497,1.035,1.491c0,0.069-0.146,0.766-0.436,2.091c0.828-0.29,1.767-0.932,2.815-1.925	c0.193-0.11,0.395-0.166,0.602-0.166c0.206,0.11,0.358,0.166,0.455,0.166v0.269c-1.38,1.601-2.871,2.402-4.472,2.402	c0,0.372-0.4,0.814-1.201,1.325h-1.347c-0.386-0.166-0.58-0.503-0.58-1.015v-0.166c0-1.739,0.746-3.174,2.236-4.306L110.362,27.183z M108.561,30.164l-0.145,1.491v0.435h0.145c0.372-0.18,0.621-0.476,0.744-0.891C109.25,31.199,109.002,30.854,108.561,30.164z M109.907,29.274v0.58h0.144v-0.58H109.907z M110.051,28.528v0.58h0.166v-0.58H110.051z"/>
    <path fill="#000" d="M119.501,26.044h0.6c0.138,0,0.284,0.145,0.436,0.435v0.58c0,0.455-0.594,2.049-1.78,4.782c0.248,0,1.49-1.097,3.727-3.292	h0.746c0.192,0.028,0.289,0.131,0.289,0.311v0.166c-2.152,2.567-3.741,3.851-4.762,3.851h-0.58l-0.745-0.125v-0.746	c0-0.456,0.586-2.001,1.759-4.637h-0.144c-2.443,3.091-3.781,4.637-4.017,4.637h-1.057c-0.18,0-0.269-0.104-0.269-0.31v-0.166	c0-1.132,0.641-2.374,1.925-3.727h0.436c0.207,0.028,0.31,0.131,0.31,0.311v0.29l-0.165,0.31h0.165	C117.713,26.935,118.756,26.044,119.501,26.044z"/>
</svg>
