<svg xmlns="http://www.w3.org/2000/svg" width="50" height="50" viewBox="0 0 50 50">
    <path fill="none" stroke="#F91B24" stroke-linejoin="round" d="M15.372,8.275	C7.502,8.664,1.126,14.88,0.544,22.734c-0.239,3.2,0.487,6.347,2.096,9.097l0.166,0.283l-1.974,7.167l7.301-1.901l0.277,0.158	c2.744,1.566,5.868,2.26,9.044,2.008c7.805-0.624,13.981-6.995,14.368-14.821c0.219-4.425-1.447-8.757-4.568-11.879	C24.312,9.904,20.3,8.256,16.148,8.256C15.889,8.255,15.632,8.261,15.372,8.275z"/>
    <path fill="none" stroke="#F91B24" stroke-linejoin="round" d="M29.606,37.865	c1.796,1.277,3.939,2.102,6.266,2.287c2.551,0.203,5.062-0.354,7.269-1.614l0.223-0.126l5.868,1.527l-1.586-5.76l0.133-0.229	c1.292-2.21,1.878-4.739,1.686-7.312c-0.469-6.313-5.594-11.31-11.92-11.624C37.335,15.005,37.128,15,36.919,15	c-0.965,0-1.916,0.123-2.844,0.337"/>
</svg>
