<svg xmlns="http://www.w3.org/2000/svg" width="50" height="50" viewBox="0 0 50 50">
    <path fill="none" stroke="#F91B24" d="M32.442,21.436c0,4.051-3.28,7.333-7.335,7.333	c-4.047,0-7.329-3.282-7.329-7.333c0-4.05,3.282-7.33,7.329-7.33C29.162,14.107,32.442,17.387,32.442,21.436z"/>
    <path fill="none" stroke="#F91B24" d="M10.891,41.743c1.408-7.407,7.223-12.955,14.201-12.955	c7.059,0,12.957,5.715,14.242,13.303"/>
    <path fill="#F91B24" d="M40.271,22.743c1.495-0.861,2.511-2.468,2.511-4.315c0-2.746-2.234-4.98-4.981-4.98	c-1.666,0-3.214,0.826-4.14,2.21l0.83,0.557c0.741-1.106,1.978-1.767,3.31-1.767c2.195,0,3.981,1.786,3.981,3.98	c0,2.025-1.523,3.684-3.481,3.933c-0.202-0.015-0.405-0.03-0.61-0.03c-0.318,0-0.621,0.019-0.923,0.051l0.107,0.994	c0.267-0.029,0.534-0.045,0.815-0.045c4.002,0,7.458,3.244,8.218,7.713l0.986-0.168C46.22,26.907,43.598,23.816,40.271,22.743z"/>
    <path fill="#F91B24" d="M10.284,22.743c-1.495-0.861-2.511-2.468-2.511-4.315c0-2.746,2.234-4.98,4.981-4.98	c1.666,0,3.214,0.826,4.14,2.21l-0.83,0.557c-0.741-1.106-1.978-1.767-3.31-1.767c-2.195,0-3.981,1.786-3.981,3.98	c0,2.025,1.523,3.684,3.481,3.933c0.202-0.015,0.405-0.03,0.61-0.03c0.318,0,0.621,0.019,0.923,0.051l-0.107,0.994	c-0.267-0.029-0.534-0.045-0.815-0.045c-4.002,0-7.458,3.244-8.218,7.713l-0.986-0.168C4.336,26.907,6.958,23.816,10.284,22.743z"/>
</svg>
